<svg width="209" height="61" viewBox="0 0 209 61" fill="none" xmlns="http://www.w3.org/2000/svg">
    <path d="M8.02123 23.2314C9.30181 23.2314 10.5551 23.3949 11.7812 23.7218C13.0073 24.0352 14.4309 24.5665 16.0521 25.3157C17.2646 25.8607 18.3885 26.3034 19.4238 26.644C20.4728 26.971 21.4877 27.2094 22.4686 27.3592C23.4631 27.5091 24.4848 27.584 25.5338 27.584H26.8621L26.6169 33.2444C24.1238 33.4215 21.6921 33.8166 19.3217 34.4296C16.9648 35.0427 14.8328 35.8328 12.9256 36.8001C11.032 37.7537 9.51978 38.8572 8.38906 40.1105C7.27196 41.3502 6.71341 42.6921 6.71341 44.1362C6.71341 45.4304 7.10167 46.5543 7.87819 47.5079C8.65471 48.4615 9.85355 49.1972 11.4747 49.7149C13.0959 50.2325 15.187 50.4914 17.7482 50.4914C18.7699 50.4914 19.8257 50.4369 20.9156 50.3279C22.019 50.2325 23.1089 50.0963 24.1851 49.9192C25.2614 49.7421 26.2559 49.5309 27.1686 49.2857V54.844C26.1469 55.2254 25.0434 55.5319 23.8582 55.7635C22.6866 55.9951 21.4946 56.1586 20.2821 56.254C19.0696 56.363 17.8708 56.4175 16.6856 56.4175C13.525 56.4175 10.8685 55.9202 8.71601 54.9257C6.56355 53.9448 4.93558 52.5689 3.8321 50.7979C2.74225 49.0405 2.19732 47.0107 2.19732 44.7083C2.19732 43.1008 2.51747 41.5818 3.15776 40.1514C3.79805 38.7209 4.71761 37.3995 5.91645 36.187C7.11529 34.9746 8.55935 33.9052 10.2486 32.9788C11.9515 32.0524 13.852 31.2963 15.9499 30.7105C18.0615 30.1111 20.3366 29.7092 22.7751 29.5049L21.9577 31.6914C21.3175 31.6641 20.5409 31.5552 19.6282 31.3644C18.729 31.1737 17.8163 30.9353 16.8899 30.6492C15.9635 30.3631 15.1393 30.0907 14.4173 29.8318C13.2866 29.4504 12.1763 29.1234 11.0864 28.851C10.0102 28.5785 8.85224 28.4423 7.61254 28.4423C6.71341 28.4423 5.88239 28.5308 5.11949 28.7079C4.37022 28.8714 3.76399 29.0553 3.3008 29.2597V24.2327C3.7095 24.0284 4.14544 23.8513 4.60863 23.7014C5.08544 23.5515 5.60312 23.4357 6.16167 23.354C6.72022 23.2723 7.34007 23.2314 8.02123 23.2314ZM20.5886 30.4653H23.899C23.899 31.0647 23.899 31.671 23.899 32.284C23.899 32.897 23.899 33.5101 23.899 34.1231C23.899 35.2538 24.0693 36.1325 24.4099 36.7592C24.7505 37.3859 25.3227 37.8286 26.1264 38.0875C26.9438 38.3327 28.0745 38.4553 29.5186 38.4553L28.9873 44.3814C26.0174 44.3814 23.8582 43.7002 22.5095 42.3379C21.1744 40.9756 20.5205 38.7891 20.5477 35.7783C20.5477 34.9065 20.5477 34.0278 20.5477 33.1423C20.5614 32.2431 20.575 31.3508 20.5886 30.4653ZM28.9873 44.3814C28.7148 44.3814 28.5105 44.3065 28.3743 44.1566C28.2516 43.9931 28.204 43.782 28.2312 43.5231L28.6808 39.3136C28.7489 38.7414 29.0282 38.4553 29.5186 38.4553C29.7774 38.4553 29.975 38.537 30.1112 38.7005C30.2474 38.8504 30.3019 39.0547 30.2747 39.3136L29.8251 43.5231C29.757 44.0953 29.4777 44.3814 28.9873 44.3814ZM19.1173 42.8896L15.8273 46.2409L12.5169 42.8896L15.8273 39.5792L19.1173 42.8896ZM33.626 49.7557L30.6425 52.7596L27.6795 49.7557L30.6425 46.7518L33.626 49.7557ZM39.6747 49.7557L36.6912 52.7596L33.7077 49.7557L36.6912 46.7518L39.6747 49.7557ZM37.6516 26.9301C38.074 28.524 38.3941 30.0021 38.6121 31.3644C38.83 32.7268 38.939 34.0482 38.939 35.3288C38.939 36.9091 38.7142 38.285 38.2647 39.4566C37.8287 40.6146 37.1816 41.5682 36.3234 42.3175C35.5605 43.0122 34.5796 43.5299 33.3808 43.8705C32.1956 44.2111 30.7379 44.3814 29.0077 44.3814L29.539 38.4553C30.5199 38.4553 31.3645 38.3736 32.0729 38.2101C32.7814 38.033 33.3263 37.7265 33.7077 37.2905C34.1028 36.8546 34.3003 36.2347 34.3003 35.431C34.3003 34.8315 34.2322 34.0482 34.096 33.081C33.9598 32.1137 33.7827 31.0852 33.5647 29.9953C33.3467 28.9054 33.1287 27.8837 32.9108 26.9301H37.6516ZM29.539 38.4553C29.7979 38.4553 29.9954 38.5302 30.1316 38.6801C30.2679 38.8299 30.3224 39.0411 30.2951 39.3136L29.8456 43.5231C29.7774 44.0953 29.4982 44.3814 29.0077 44.3814C28.7353 44.3814 28.5377 44.3065 28.4151 44.1566C28.2789 43.9931 28.2244 43.782 28.2516 43.5231L28.7012 39.3136C28.7557 38.7414 29.035 38.4553 29.539 38.4553ZM52.8551 44.3814C50.8389 44.3814 49.2041 44.0953 47.9508 43.5231C46.6974 42.9509 45.7779 42.0314 45.1921 40.7644C44.6063 39.4975 44.3134 37.8286 44.3134 35.7579V13.7701H48.9316V34.164C48.9316 35.2266 49.0406 36.0712 49.2586 36.6979C49.4902 37.3246 49.9261 37.7741 50.5664 38.0466C51.2067 38.3191 52.1535 38.4553 53.4068 38.4553L52.8551 44.3814ZM52.8551 44.3814C52.5963 44.3814 52.3987 44.3065 52.2625 44.1566C52.1263 43.9931 52.0718 43.782 52.099 43.5231L52.569 39.3136C52.6371 38.7414 52.9164 38.4553 53.4068 38.4553C53.6657 38.4553 53.8632 38.537 53.9995 38.7005C54.1357 38.8504 54.1902 39.0547 54.1629 39.3136L53.7134 43.5231C53.6452 44.0953 53.3592 44.3814 52.8551 44.3814ZM60.886 49.7353L57.596 53.0866L54.2855 49.7149L57.596 46.4249L60.886 49.7353ZM61.5194 26.9301C61.9418 28.524 62.2619 30.0021 62.4799 31.3644C62.6979 32.7268 62.8068 34.0482 62.8068 35.3288C62.8068 36.9091 62.5821 38.285 62.1325 39.4566C61.6965 40.6146 61.0494 41.5682 60.1912 42.3175C59.4283 43.0122 58.4474 43.5299 57.2486 43.8705C56.0634 44.2111 54.6057 44.3814 52.8755 44.3814L53.4068 38.4553C54.3877 38.4553 55.2324 38.3736 55.9408 38.2101C56.6492 38.033 57.1941 37.7265 57.5755 37.2905C57.9706 36.8546 58.1681 36.2347 58.1681 35.431C58.1681 34.8315 58.1 34.0482 57.9638 33.081C57.8276 32.1137 57.6505 31.0852 57.4325 29.9953C57.2145 28.9054 56.9966 27.8837 56.7786 26.9301H61.5194ZM53.4068 38.4553C53.6657 38.4553 53.8632 38.5302 53.9995 38.6801C54.1357 38.8299 54.1902 39.0411 54.1629 39.3136L53.7134 43.5231C53.6453 44.0953 53.366 44.3814 52.8755 44.3814C52.6031 44.3814 52.4055 44.3065 52.2829 44.1566C52.1467 43.9931 52.0922 43.782 52.1195 43.5231L52.569 39.3136C52.6235 38.7414 52.9028 38.4553 53.4068 38.4553ZM85.4281 30.7514L85.8981 33.367C86.1433 34.743 86.4362 35.7988 86.7768 36.5344C87.131 37.2701 87.6555 37.7741 88.3503 38.0466C89.0451 38.3191 90.0259 38.4553 91.2929 38.4553L90.7616 44.3814C89.4401 44.3814 88.323 44.1498 87.4103 43.6866C86.5112 43.2234 85.7483 42.4673 85.1216 41.4183L85.8777 39.1092C85.9594 39.1637 86.0752 39.4157 86.2251 39.8653C86.3749 40.3149 86.4499 40.8189 86.4499 41.3775C86.2864 43.8841 85.7074 46.0366 84.7129 47.8349C83.732 49.6331 82.4583 51.0022 80.8916 51.9422C79.3249 52.8959 77.5812 53.3727 75.6603 53.3727C75.129 53.3727 74.6249 53.3454 74.1481 53.2909C73.6713 53.2364 73.249 53.1683 72.8812 53.0866C72.4997 53.0048 72.1796 52.9163 71.9207 52.8209V47.5079C72.3976 47.6033 72.8948 47.6782 73.4125 47.7327C73.9438 47.7872 74.5296 47.8144 75.1699 47.8144C76.8046 47.8144 78.1465 47.433 79.1955 46.6701C80.2445 45.9208 81.0142 44.9604 81.5046 43.7888C82.0087 42.6172 82.2607 41.4047 82.2607 40.1514C82.2607 39.7699 82.2471 39.4157 82.2199 39.0888C82.1926 38.7482 82.1313 38.285 82.0359 37.6992C81.9406 37.1134 81.7907 36.2824 81.5864 35.2062C81.382 34.1299 81.1028 32.645 80.7486 30.7514H85.4281ZM90.7616 44.3814C90.5028 44.3814 90.3052 44.3065 90.169 44.1566C90.0328 43.9931 89.9783 43.782 90.0055 43.5231L90.4551 39.3136C90.5232 38.7414 90.8025 38.4553 91.2929 38.4553C91.5654 38.4553 91.7629 38.537 91.8855 38.7005C92.0217 38.8504 92.0762 39.0547 92.049 39.3136L91.5994 43.5231C91.5313 44.0953 91.252 44.3814 90.7616 44.3814ZM86.0003 23.9057L82.7103 27.257L79.3999 23.9057L82.7103 20.5953L86.0003 23.9057ZM95.3798 49.7557L92.3964 52.7596L89.4333 49.7557L92.3964 46.7518L95.3798 49.7557ZM101.429 49.7557L98.4451 52.7596L95.4616 49.7557L98.4451 46.7518L101.429 49.7557ZM99.4055 26.9301C99.8278 28.524 100.148 30.0021 100.366 31.3644C100.584 32.7268 100.693 34.0482 100.693 35.3288C100.693 36.9091 100.468 38.285 100.019 39.4566C99.5826 40.6146 98.9355 41.5682 98.0772 42.3175C97.3143 43.0122 96.3335 43.5299 95.1346 43.8705C93.9494 44.2111 92.4917 44.3814 90.7616 44.3814L91.2929 38.4553C92.2738 38.4553 93.1184 38.3736 93.8268 38.2101C94.5352 38.033 95.0801 37.7265 95.4616 37.2905C95.8567 36.8546 96.0542 36.2347 96.0542 35.431C96.0542 34.8315 95.9861 34.0482 95.8499 33.081C95.7136 32.1137 95.5365 31.0852 95.3185 29.9953C95.1006 28.9054 94.8826 27.8837 94.6646 26.9301H99.4055ZM91.2929 38.4553C91.5517 38.4553 91.7493 38.5302 91.8855 38.6801C92.0217 38.8299 92.0762 39.0411 92.049 39.3136L91.5994 43.5231C91.5313 44.0953 91.252 44.3814 90.7616 44.3814C90.4891 44.3814 90.2916 44.3065 90.169 44.1566C90.0328 43.9931 89.9783 43.782 90.0055 43.5231L90.4551 39.3136C90.5096 38.7414 90.7888 38.4553 91.2929 38.4553ZM110.399 44.3814C109.419 44.3814 108.431 44.3814 107.436 44.3814C106.455 44.3814 105.468 44.3814 104.473 44.3814V38.7414C105.509 38.7414 106.537 38.7414 107.559 38.7414C108.581 38.7414 109.596 38.7414 110.604 38.7414C112.92 38.7414 114.718 38.5507 115.999 38.1692C117.293 37.7878 118.205 37.1338 118.737 36.2075C119.268 35.2811 119.534 34.0005 119.534 32.3657V13.7701H124.152V33.9596C124.152 35.1721 124.261 36.1053 124.479 36.7592C124.711 37.3995 125.133 37.8423 125.746 38.0875C126.373 38.3327 127.272 38.4553 128.443 38.4553L127.912 44.3814C126.509 44.3814 125.303 44.177 124.295 43.7683C123.301 43.3596 122.524 42.7057 121.965 41.8066C121.421 40.8938 121.114 39.7223 121.046 38.2918V37.2088L121.7 37.2496C121.523 39.5928 120.521 41.3707 118.696 42.5831C116.884 43.782 114.119 44.3814 110.399 44.3814ZM114.589 41.0096L105.352 18.7562H110.175L118.369 38.6801C118.205 39.2386 117.817 39.7563 117.204 40.2331C116.605 40.7099 115.733 40.9688 114.589 41.0096ZM127.912 44.3814C127.653 44.3814 127.456 44.3065 127.319 44.1566C127.183 43.9931 127.129 43.782 127.156 43.5231L127.626 39.3136C127.694 38.7414 127.966 38.4553 128.443 38.4553C128.716 38.4553 128.913 38.537 129.036 38.7005C129.172 38.8504 129.233 39.0547 129.22 39.3136L128.75 43.5231C128.682 44.0953 128.402 44.3814 127.912 44.3814ZM135.922 49.7353L132.632 53.0866L129.322 49.7149L132.632 46.4249L135.922 49.7353ZM136.556 26.9301C136.978 28.524 137.298 30.0021 137.516 31.3644C137.734 32.7268 137.843 34.0482 137.843 35.3288C137.843 36.9091 137.619 38.285 137.169 39.4566C136.733 40.6146 136.086 41.5682 135.228 42.3175C134.465 43.0122 133.484 43.5299 132.285 43.8705C131.1 44.2111 129.642 44.3814 127.912 44.3814L128.443 38.4553C129.424 38.4553 130.269 38.3736 130.977 38.2101C131.686 38.033 132.231 37.7265 132.612 37.2905C133.007 36.8546 133.205 36.2347 133.205 35.431C133.205 34.8315 133.136 34.0482 133 33.081C132.864 32.1137 132.687 31.0852 132.469 29.9953C132.251 28.9054 132.033 27.8837 131.815 26.9301H136.556ZM128.443 38.4553C128.702 38.4553 128.9 38.5302 129.036 38.6801C129.172 38.8299 129.227 39.0411 129.199 39.3136L128.75 43.5231C128.682 44.0953 128.402 44.3814 127.912 44.3814C127.64 44.3814 127.442 44.3065 127.319 44.1566C127.183 43.9931 127.129 43.782 127.156 43.5231L127.605 39.3136C127.66 38.7414 127.939 38.4553 128.443 38.4553Z" fill="white"/>
    <path d="M184 36.0195L184.029 35.9902L201.707 53.668C199.386 55.9893 196.63 57.8306 193.597 59.0869C190.564 60.3433 187.312 60.9902 184.029 60.9902C180.746 60.9902 177.496 60.3432 174.463 59.0869C171.43 57.8305 168.673 55.9894 166.352 53.668L166.322 53.6973C164.001 51.3759 162.16 48.6199 160.903 45.5869C159.647 42.5538 159 39.3025 159 36.0195C159 32.7365 159.647 29.4853 160.903 26.4521C162.16 23.4191 164.001 20.6632 166.322 18.3418L184 36.0195ZM201.696 18.292L201.691 18.2959C204.006 20.6145 205.844 23.3654 207.098 26.3926C208.354 29.4257 209 32.677 209 35.96C209 39.243 208.354 42.4942 207.098 45.5273C205.841 48.5605 203.999 51.3162 201.678 53.6377L184 35.96L184.004 35.9551C181.689 33.6367 179.852 30.8862 178.599 27.8594C177.342 24.8262 176.696 21.5751 176.696 18.292C176.696 15.0089 177.342 11.7577 178.599 8.72461C179.855 5.6915 181.697 2.93571 184.019 0.614258L201.696 18.292Z" fill="#FF00E1"/>
    </svg>
    